<svg xmlns="http://www.w3.org/2000/svg" viewBox="0 0 800 450" role="img" aria-label="Illustration : un baril de bain froid fumant au milieu d'une salle de CrossFit, barre chargée posée au sol et anneaux suspendus au rig">
  <defs>
    <linearGradient id="ciel" x1="0" y1="0" x2="0" y2="1">
      <stop offset="0" stop-color="#1d3d5c"/>
      <stop offset="1" stop-color="#0e1c28"/>
    </linearGradient>
    <radialGradient id="halo" cx="0.5" cy="0.5" r="0.5">
      <stop offset="0" stop-color="#2ba8e0" stop-opacity="0.38"/>
      <stop offset="1" stop-color="#2ba8e0" stop-opacity="0"/>
    </radialGradient>
    <linearGradient id="bois" x1="0" y1="0" x2="0" y2="1">
      <stop offset="0" stop-color="#8a6242"/>
      <stop offset="1" stop-color="#563a25"/>
    </linearGradient>
    <linearGradient id="metal" x1="0" y1="0" x2="0" y2="1">
      <stop offset="0" stop-color="#d7e0e6"/>
      <stop offset="1" stop-color="#8a99a2"/>
    </linearGradient>
    <linearGradient id="eau" x1="0" y1="0" x2="0" y2="1">
      <stop offset="0" stop-color="#b8e9fc"/>
      <stop offset="1" stop-color="#48b4e9"/>
    </linearGradient>
    <linearGradient id="plaque" x1="0" y1="0" x2="0" y2="1">
      <stop offset="0" stop-color="#ff7a56"/>
      <stop offset="1" stop-color="#c93d1d"/>
    </linearGradient>
    <filter id="grain">
      <feTurbulence type="fractalNoise" baseFrequency="0.8" numOctaves="2" stitchTiles="stitch"/>
      <feColorMatrix type="matrix" values="0 0 0 0 1  0 0 0 0 1  0 0 0 0 1  0 0 0 0.05 0"/>
    </filter>
  </defs>

  <!-- Fond de salle -->
  <rect width="800" height="450" fill="url(#ciel)"/>
  <ellipse cx="330" cy="230" rx="280" ry="170" fill="url(#halo)"/>

  <!-- Rig en arrière-plan -->
  <g fill="#21405a">
    <rect x="40" y="52" width="720" height="12" rx="4"/>
    <rect x="82" y="52" width="14" height="250" rx="4"/>
    <rect x="700" y="52" width="14" height="250" rx="4"/>
  </g>
  <!-- Anneaux suspendus -->
  <g>
    <line x1="612" y1="64" x2="612" y2="132" stroke="#3a5a76" stroke-width="5"/>
    <line x1="668" y1="64" x2="668" y2="132" stroke="#3a5a76" stroke-width="5"/>
    <circle cx="612" cy="150" r="17" fill="none" stroke="#e0a000" stroke-width="6"/>
    <circle cx="668" cy="150" r="17" fill="none" stroke="#e0a000" stroke-width="6"/>
  </g>

  <!-- Flocons / poussière froide -->
  <g stroke="#cfeafd" stroke-width="3" stroke-linecap="round" opacity="0.5">
    <g transform="translate(150,120)"><line x1="-10" y1="0" x2="10" y2="0"/><line x1="0" y1="-10" x2="0" y2="10"/><line x1="-7" y1="-7" x2="7" y2="7"/><line x1="-7" y1="7" x2="7" y2="-7"/></g>
    <g transform="translate(480,90) scale(0.7)"><line x1="-10" y1="0" x2="10" y2="0"/><line x1="0" y1="-10" x2="0" y2="10"/><line x1="-7" y1="-7" x2="7" y2="7"/><line x1="-7" y1="7" x2="7" y2="-7"/></g>
    <g transform="translate(240,170) scale(0.55)"><line x1="-10" y1="0" x2="10" y2="0"/><line x1="0" y1="-10" x2="0" y2="10"/><line x1="-7" y1="-7" x2="7" y2="7"/><line x1="-7" y1="7" x2="7" y2="-7"/></g>
    <circle cx="380" cy="140" r="3" fill="#cfeafd" stroke="none"/>
    <circle cx="540" cy="200" r="3" fill="#cfeafd" stroke="none"/>
    <circle cx="120" cy="230" r="3" fill="#cfeafd" stroke="none"/>
  </g>

  <!-- Sol -->
  <rect x="0" y="372" width="800" height="78" fill="#0a141d"/>
  <line x1="0" y1="372" x2="800" y2="372" stroke="#274965" stroke-width="3"/>

  <!-- Ombres portées -->
  <ellipse cx="330" cy="392" rx="130" ry="14" fill="#000000" opacity="0.35"/>
  <ellipse cx="600" cy="392" rx="120" ry="12" fill="#000000" opacity="0.35"/>

  <!-- Baril de bain froid -->
  <g>
    <rect x="230" y="204" width="200" height="180" rx="16" fill="url(#bois)"/>
    <!-- douves -->
    <g stroke="#46301f" stroke-width="3" opacity="0.55">
      <line x1="263" y1="212" x2="263" y2="380"/>
      <line x1="296" y1="214" x2="296" y2="382"/>
      <line x1="330" y1="215" x2="330" y2="383"/>
      <line x1="364" y1="214" x2="364" y2="382"/>
      <line x1="397" y1="212" x2="397" y2="380"/>
    </g>
    <!-- cerclages métal -->
    <rect x="226" y="236" width="208" height="14" rx="7" fill="url(#metal)"/>
    <rect x="226" y="330" width="208" height="14" rx="7" fill="url(#metal)"/>
    <!-- eau glacée -->
    <ellipse cx="330" cy="207" rx="100" ry="24" fill="url(#eau)" stroke="#7fd0f5" stroke-width="4"/>
    <ellipse cx="330" cy="204" rx="72" ry="14" fill="#d9f3fe" opacity="0.55"/>
    <!-- glaçons -->
    <g fill="#f6fcff" stroke="#9ddcf8" stroke-width="3">
      <rect x="272" y="192" width="30" height="26" rx="7" transform="rotate(-12 287 205)"/>
      <rect x="336" y="198" width="24" height="22" rx="6" transform="rotate(10 348 209)"/>
      <rect x="378" y="190" width="27" height="24" rx="7" transform="rotate(6 391 202)"/>
    </g>
    <!-- vapeur froide -->
    <g fill="none" stroke="#d9effc" stroke-width="6" stroke-linecap="round" opacity="0.5">
      <path d="M290 176 q-10 -24 6 -44"/>
      <path d="M334 168 q12 -22 -2 -46"/>
      <path d="M374 178 q-8 -20 6 -38"/>
    </g>
  </g>

  <!-- Barre olympique chargée, posée au sol -->
  <g>
    <rect x="455" y="299" width="345" height="12" rx="6" fill="url(#metal)"/>
    <rect x="505" y="291" width="24" height="28" rx="7" fill="#8a99a2"/>
    <!-- disque arrière -->
    <circle cx="632" cy="305" r="66" fill="#1e5f86"/>
    <circle cx="632" cy="305" r="20" fill="#12293a"/>
    <!-- disque avant -->
    <circle cx="595" cy="305" r="75" fill="url(#plaque)"/>
    <circle cx="595" cy="305" r="52" fill="none" stroke="#a83217" stroke-width="4" opacity="0.7"/>
    <circle cx="595" cy="305" r="22" fill="#14232e"/>
    <circle cx="595" cy="305" r="10" fill="url(#metal)"/>
    <!-- reflet -->
    <path d="M534 266 A 75 75 0 0 1 656 262" fill="none" stroke="#ffd3c4" stroke-width="5" stroke-linecap="round" opacity="0.65"/>
  </g>

  <!-- Grain -->
  <rect width="800" height="450" filter="url(#grain)"/>
</svg>
