<svg xmlns="http://www.w3.org/2000/svg" viewBox="0 0 800 450" role="img" aria-label="Illustration : barre olympique chargée posée au sol d'une salle de CrossFit, anneaux suspendus au rig">
  <defs>
    <linearGradient id="ciel" x1="0" y1="0" x2="0" y2="1">
      <stop offset="0" stop-color="#1d3d5c"/>
      <stop offset="1" stop-color="#0e1c28"/>
    </linearGradient>
    <radialGradient id="halo" cx="0.5" cy="0.5" r="0.5">
      <stop offset="0" stop-color="#2ba8e0" stop-opacity="0.32"/>
      <stop offset="1" stop-color="#2ba8e0" stop-opacity="0"/>
    </radialGradient>
    <linearGradient id="metal" x1="0" y1="0" x2="0" y2="1">
      <stop offset="0" stop-color="#d7e0e6"/>
      <stop offset="1" stop-color="#8a99a2"/>
    </linearGradient>
    <linearGradient id="plaque" x1="0" y1="0" x2="0" y2="1">
      <stop offset="0" stop-color="#ff7a56"/>
      <stop offset="1" stop-color="#c93d1d"/>
    </linearGradient>
    <filter id="grain">
      <feTurbulence type="fractalNoise" baseFrequency="0.8" numOctaves="2" stitchTiles="stitch"/>
      <feColorMatrix type="matrix" values="0 0 0 0 1  0 0 0 0 1  0 0 0 0 1  0 0 0 0.05 0"/>
    </filter>
  </defs>

  <!-- Fond de salle -->
  <rect width="800" height="450" fill="url(#ciel)"/>
  <ellipse cx="400" cy="270" rx="330" ry="180" fill="url(#halo)"/>

  <!-- Rig en arrière-plan -->
  <g fill="#21405a">
    <rect x="40" y="52" width="720" height="12" rx="4"/>
    <rect x="82" y="52" width="14" height="250" rx="4"/>
    <rect x="700" y="52" width="14" height="250" rx="4"/>
  </g>
  <!-- Anneaux suspendus -->
  <g>
    <line x1="372" y1="64" x2="372" y2="118" stroke="#3a5a76" stroke-width="5"/>
    <line x1="428" y1="64" x2="428" y2="118" stroke="#3a5a76" stroke-width="5"/>
    <circle cx="372" cy="136" r="17" fill="none" stroke="#e0a000" stroke-width="6"/>
    <circle cx="428" cy="136" r="17" fill="none" stroke="#e0a000" stroke-width="6"/>
  </g>

  <!-- Poussière de craie -->
  <g fill="#e8f2f8" opacity="0.45">
    <circle cx="180" cy="160" r="3"/>
    <circle cx="620" cy="140" r="3"/>
    <circle cx="530" cy="190" r="4"/>
    <circle cx="260" cy="120" r="3"/>
    <circle cx="700" cy="220" r="3"/>
  </g>

  <!-- Sol -->
  <rect x="0" y="372" width="800" height="78" fill="#0a141d"/>
  <line x1="0" y1="372" x2="800" y2="372" stroke="#274965" stroke-width="3"/>

  <!-- Ombre portée -->
  <ellipse cx="400" cy="392" rx="300" ry="14" fill="#000000" opacity="0.35"/>

  <!-- Barre olympique chargée (vue de profil, posée au sol) -->
  <g>
    <rect x="30" y="286" width="740" height="12" rx="6" fill="url(#metal)"/>
    <!-- stries centrales -->
    <g stroke="#6b7c86" stroke-width="2" opacity="0.7">
      <line x1="380" y1="288" x2="380" y2="296"/>
      <line x1="392" y1="288" x2="392" y2="296"/>
      <line x1="404" y1="288" x2="404" y2="296"/>
      <line x1="416" y1="288" x2="416" y2="296"/>
    </g>
    <!-- colliers -->
    <rect x="296" y="278" width="24" height="28" rx="7" fill="#8a99a2"/>
    <rect x="480" y="278" width="24" height="28" rx="7" fill="#8a99a2"/>

    <!-- disques gauche -->
    <circle cx="252" cy="292" r="76" fill="#1e5f86"/>
    <circle cx="252" cy="292" r="20" fill="#12293a"/>
    <circle cx="215" cy="292" r="88" fill="url(#plaque)"/>
    <circle cx="215" cy="292" r="60" fill="none" stroke="#a83217" stroke-width="4" opacity="0.7"/>
    <circle cx="215" cy="292" r="24" fill="#14232e"/>
    <circle cx="215" cy="292" r="11" fill="url(#metal)"/>
    <path d="M146 242 A 88 88 0 0 1 284 238" fill="none" stroke="#ffd3c4" stroke-width="5" stroke-linecap="round" opacity="0.65"/>

    <!-- disques droite -->
    <circle cx="548" cy="292" r="76" fill="#1e5f86"/>
    <circle cx="548" cy="292" r="20" fill="#12293a"/>
    <circle cx="585" cy="292" r="88" fill="url(#plaque)"/>
    <circle cx="585" cy="292" r="60" fill="none" stroke="#a83217" stroke-width="4" opacity="0.7"/>
    <circle cx="585" cy="292" r="24" fill="#14232e"/>
    <circle cx="585" cy="292" r="11" fill="url(#metal)"/>
    <path d="M516 242 A 88 88 0 0 1 654 238" fill="none" stroke="#ffd3c4" stroke-width="5" stroke-linecap="round" opacity="0.65"/>
  </g>

  <!-- Grain -->
  <rect width="800" height="450" filter="url(#grain)"/>
</svg>
